PathFileType	4	(X/Y/Z)	C:\Users\WrightLab\Desktop\Jo\P1_boxCal30.trc
DataRate	CameraRate	NumFrames	NumMarkers	Units	OrigDataRate	OrigDataStartFrame	OrigNumFrames
100.00	100.00	       8	19	mm	100.00	361	       481
Frame#	Time	Headset_Front			Headset_Back			Headset_Left			Headset_Right			Left_Shoulder			Right_Shoulder			Sternum			C7			Left Elbow			Right Elbow			Left Wrist			Right Wrist			Left ASIS			Right ASIS			S2			Left Knee			Right Knee			Left Ankle			Right Ankle			
		X1	Y1	Z1	X2	Y2	Z2	X3	Y3	Z3	X4	Y4	Z4	X5	Y5	Z5	X6	Y6	Z6	X7	Y7	Z7	X8	Y8	Z8	X9	Y9	Z9	X10	Y10	Z10	X11	Y11	Z11	X12	Y12	Z12	X13	Y13	Z13	X14	Y14	Z14	X15	Y15	Z15	X16	Y16	Z16	X17	Y17	Z17	X18	Y18	Z18	X19	Y19	Z19	

361	3.600	-288.61621	132.76227	2388.71582	-259.08380	235.28191	80.43530							-99.55450	1298.84045	2111.15381	-479.29071	1286.66101	2071.39673	-318.38022	1202.37280	2228.45239	-241.14523	1501.05054	2172.44507				-543.64008	1022.65051	1981.72949	50.36860	852.04175	2329.33765	-640.93665	799.77649	2001.15308	-186.12080	924.81567	2259.98730	-386.63535	913.87140	2254.10107				-69.62099	486.71011	2087.81665	-409.04916	497.38226	2273.01855	-104.45379	174.08772	1884.45715				
362	3.610	-288.52136	132.79570	2389.59546	-259.08380	235.28191	80.43530							-100.79499	1300.56360	2119.85400	-481.38779	1286.89258	2080.37842	-319.74374	1204.26819	2237.51440	-242.88599	1501.90454	2179.35669							44.95095	851.25226	2337.03857	-640.90656	799.99664	2010.47192	-188.85162	926.71216	2269.47192	-389.32324	914.95135	2263.24609				-66.58334	485.28452	2107.39258	-411.90784	497.30273	2280.30786	-99.27951	183.48648	1886.36414				
363	3.620	-67.97696	1186.38977	1318.60889	-259.08380	235.28191	80.43530							-102.77039	1300.90247	2127.10278	-482.43094	1287.48096	2087.76465	-322.25006	1204.99658	2245.13867	-244.97896	1502.38318	2185.31689				-543.66864	1023.01367	1997.20178	39.82940	850.90027	2344.56689	-640.45435	799.67828	2018.13477	-191.57881	928.88782	2278.80078	-391.37387	916.45105	2271.81519				-65.09108	485.30231	2126.46509	-415.66205	500.07471	2288.64526	-97.66957	191.27773	1902.16724				
364	3.630	-70.70286	1187.37524	1327.86975	-259.08380	235.28191	80.43530							-104.43887	1302.86755	2136.41943	-483.42633	1288.06494	2095.40259	-323.44025	1207.23145	2254.03711	-247.38081	1503.29199	2192.83081				-543.82013	1023.77972	2005.54236	34.49697	850.25586	2352.77124	-639.81781	800.37714	2026.12573	-194.75084	930.57880	2288.10913	-394.12555	918.74426	2280.72705	-274.69592	903.98700	1964.41943	-61.85835	484.17392	2149.77734	-419.46704	502.52411	2295.41846	-94.34758	199.49040	1914.37952				
365	3.640	-288.67154	130.68877	2391.13647	-259.65164	234.67694	80.91065							-105.36689	1304.12195	2144.95386	-484.07999	1289.42664	2102.93506	-324.96823	1208.08801	2260.41992	-249.53474	1504.54749	2200.31714				-543.92859	1024.51941	2012.63855	29.10229	849.21637	2359.43408	-639.01178	799.94495	2034.89697	-198.29572	932.82666	2297.30347	-397.12534	920.89087	2287.64795	-276.15979	903.40741	1978.58875	-59.11874	484.86130	2172.29224	-422.79062	505.18033	2301.89941	-91.43835	209.37717	1927.37854				
366	3.650	-76.93078	1188.14380	1344.51794	-259.65164	234.67694	80.91065							-105.98704	1306.12268	2153.51563	-484.38452	1290.46021	2109.17261	-325.77341	1209.72314	2268.06592	-251.38608	1505.41650	2205.65015							23.52214	847.45532	2367.04736	-639.12079	801.44891	2044.89746	-200.96661	934.22345	2305.27539	-400.31174	922.69830	2294.89331	-276.75317	903.62665	1985.23315	-56.37152	486.96970	2193.26367	-425.67770	506.04880	2307.13867	-87.51770	217.41548	1943.86121				
367	3.660	-78.77987	1188.46228	1352.76611	-259.65164	234.67694	80.91065							-106.51983	1307.95764	2161.88452	-484.72891	1292.09241	2116.25049	-326.99359	1211.10889	2275.02441	-253.52438	1506.75122	2213.38721				-544.64063	1026.30249	2029.61609	17.32784	846.89642	2373.46143	-638.62518	801.57855	2052.65723	-204.61089	935.45056	2314.27563	-403.22800	924.64410	2301.63843				-53.37229	488.73700	2215.04565	-428.30844	506.00070	2311.47363	-82.86660	224.40700	1964.44458				
368	3.670	-288.34595	129.63573	2390.77148	-259.76602	235.48682	80.66072							-106.63329	1309.33777	2170.28638				-328.18851	1212.81665	2282.30884	-255.87776	1508.92212	2220.44360				-545.49377	1027.44641	2038.53406	12.61106	845.52618	2381.08105	-638.34070	802.56628	2062.47656	-207.94957	936.93890	2322.89819	-278.10901	905.00623	1996.53040				-50.97783	491.95883	2235.44800	-432.03915	505.26706	2314.45117	-80.04903	232.80281	1980.70349				
